<svg width="83" height="83" viewBox="0 0 83 83" fill="none" xmlns="http://www.w3.org/2000/svg">
<path d="M25.7408 34.3601L49.2522 49.3654L32.4249 53.0816C31.0801 53.3786 30.2203 54.7257 30.5173 56.0705C30.8143 57.4153 32.1404 58.2616 33.4852 57.9646L56.209 52.9462C57.5538 52.6493 58.4001 51.3232 58.1032 49.9784L53.1192 27.2469C52.9775 26.6018 52.585 26.0396 52.0282 25.6842C51.4714 25.3289 50.7962 25.2096 50.1514 25.3528C48.8066 25.6498 47.9602 26.9759 48.2572 28.3207L51.939 45.1556L28.4275 30.1504C27.2699 29.4115 25.7181 29.7542 24.9793 30.9119C24.2405 32.0696 24.5831 33.6213 25.7408 34.3601Z" fill="#F7AD1A"/>
</svg>
