<svg width="71" height="50" viewBox="0 0 71 50" fill="none" xmlns="http://www.w3.org/2000/svg">
<path d="M0.187722 17.4546V4.3869e-05H12.3582V3.42618H4.40647V7.00573H11.736V10.4404H4.40647V14.0285H12.3582V17.4546H0.187722ZM17.4002 4.3869e-05H22.6247L27.0565 10.8069H27.261L31.6928 4.3869e-05H36.9173V17.4546H32.8093V6.733H32.6644L28.4712 17.3438H25.8462L21.6531 6.67334H21.5082V17.4546H17.4002V4.3869e-05ZM41.9487 17.4546V4.3869e-05H54.1191V3.42618H46.1674V7.00573H53.497V10.4404H46.1674V14.0285H54.1191V17.4546H41.9487ZM59.1612 17.4546V4.3869e-05H63.3799V14.0285H70.6413V17.4546H59.1612ZM11.6423 34.7017C11.5457 34.3438 11.4036 34.0285 11.2161 33.7557C11.0286 33.4773 10.7985 33.2415 10.5258 33.0483C10.2531 32.8552 9.94056 32.7103 9.58829 32.6137C9.23602 32.5114 8.84965 32.4603 8.4292 32.4603C7.58261 32.4603 6.84965 32.6648 6.23034 33.0739C5.6167 33.483 5.14227 34.0796 4.80704 34.8637C4.47181 35.6421 4.3042 36.5881 4.3042 37.7017C4.3042 38.8211 4.46613 39.7756 4.78999 40.5654C5.11386 41.3552 5.58261 41.9574 6.19625 42.3722C6.80988 42.787 7.5542 42.9944 8.4292 42.9944C9.20193 42.9944 9.85534 42.8694 10.3894 42.6194C10.9292 42.3637 11.3383 42.0029 11.6167 41.537C11.8951 41.0711 12.0343 40.5228 12.0343 39.8921L12.8184 39.9858H8.57409V36.9091H16.0997V39.2188C16.0997 40.7813 15.7673 42.1194 15.1025 43.233C14.4434 44.3466 13.5343 45.2017 12.3752 45.7983C11.2218 46.3949 9.89511 46.6932 8.39511 46.6932C6.73034 46.6932 5.26727 46.3324 4.0059 45.6108C2.74454 44.8892 1.76159 43.8608 1.05704 42.5256C0.352495 41.1847 0.000221938 39.5938 0.000221938 37.7529C0.000221938 36.3211 0.21329 35.0512 0.639427 33.9432C1.06556 32.8296 1.65931 31.8864 2.42068 31.1137C3.18772 30.341 4.07409 29.7557 5.07977 29.358C6.09113 28.9603 7.1792 28.7614 8.34397 28.7614C9.35534 28.7614 10.2957 28.9063 11.165 29.1961C12.04 29.4858 12.8127 29.8949 13.4832 30.4233C14.1593 30.9517 14.7076 31.5796 15.1281 32.3069C15.5485 33.0341 15.8099 33.8324 15.9122 34.7017H11.6423ZM24.2227 46.4546H19.6886L25.5778 29H31.1943L37.0835 46.4546H32.5494L28.4499 33.3978H28.3136L24.2227 46.4546ZM23.6176 39.5853H33.0948V42.7898H23.6176V39.5853ZM41.3627 46.4546V29H48.5729C49.8798 29 51.0076 29.2358 51.9565 29.7074C52.911 30.1733 53.6468 30.8438 54.1639 31.7188C54.6809 32.5881 54.9394 33.6194 54.9394 34.8125C54.9394 36.0228 54.6752 37.0512 54.1468 37.8978C53.6184 38.7387 52.8684 39.3807 51.8968 39.8239C50.9252 40.2614 49.7747 40.4802 48.4451 40.4802H43.8854V37.1563H47.661C48.2974 37.1563 48.8286 37.0739 49.2548 36.9091C49.6866 36.7387 50.0133 36.483 50.2349 36.1421C50.4565 35.7955 50.5673 35.3523 50.5673 34.8125C50.5673 34.2728 50.4565 33.8267 50.2349 33.4745C50.0133 33.1165 49.6866 32.8495 49.2548 32.6733C48.8229 32.4915 48.2917 32.4006 47.661 32.4006H45.5815V46.4546H41.3627ZM51.1894 38.4773L55.536 46.4546H50.9337L46.6724 38.4773H51.1894ZM67.7329 28.1819L62.1079 49.0796H58.5539L64.1789 28.1819H67.7329Z" fill="#040000"/>
</svg>
