<svg width="68" height="67" viewBox="0 0 68 67" fill="none" xmlns="http://www.w3.org/2000/svg">
<rect x="38.3022" width="45" height="50" rx="22.5" transform="rotate(50 38.3022 0)" fill="white"/>
<rect x="38.3022" width="45" height="50" rx="22.5" transform="rotate(50 38.3022 0)" stroke="white"/>
<path d="M23.9808 43.8365L41.8073 28.8783L39.9007 42.4226C39.7483 43.505 40.5197 44.4243 41.6121 44.4622C42.7046 44.5001 43.71 43.6564 43.8624 42.574L46.4371 24.2836C46.5107 23.7645 46.373 23.2593 46.0542 22.8793C45.7354 22.4994 45.2617 22.276 44.7377 22.2584L26.282 21.5902C25.1896 21.5522 24.1841 22.3959 24.0318 23.4783C23.8794 24.5608 24.6387 25.4657 25.7311 25.5036L39.3968 26.0056L21.5704 40.9638C20.6926 41.7004 20.5168 42.9493 21.1797 43.7393C21.8425 44.5293 23.103 44.573 23.9808 43.8365Z" fill="#6D7D8B"/>
</svg>
